<?xml version="1.0" encoding="UTF-8" standalone="no"?>
<!DOCTYPE svg PUBLIC "-//W3C//DTD SVG 1.1//EN" "http://www.w3.org/Graphics/SVG/1.1/DTD/svg11.dtd">
<svg width="100%" height="100%" viewBox="0 0 512 512" version="1.1" xmlns="http://www.w3.org/2000/svg" xmlns:xlink="http://www.w3.org/1999/xlink" xml:space="preserve" xmlns:serif="http://www.serif.com/" style="fill-rule:evenodd;clip-rule:evenodd;stroke-linejoin:round;stroke-miterlimit:2;">
    <path d="M512.75,422.511C512.75,472.218 472.456,512.511 422.75,512.511L90.75,512.511C41.044,512.511 0.75,472.218 0.75,422.511L0.75,90.512C0.75,40.806 41.044,0.512 90.75,0.512L422.75,0.512C472.456,0.512 512.75,40.806 512.75,90.512L512.75,422.511Z" style="fill:rgb(31,29,40);fill-rule:nonzero;"/>
    <path d="M457.554,443.982C457.554,439.916 454.259,436.618 450.192,436.618L65.417,436.618C61.35,436.618 58.054,439.916 58.054,443.982L58.054,446.956C58.054,451.022 61.35,454.32 65.417,454.32L450.191,454.32C454.258,454.32 457.553,451.022 457.553,446.956L457.553,443.982L457.554,443.982Z" style="fill:rgb(62,58,57);fill-rule:nonzero;"/>
    <path d="M254.75,435.218C254.75,439.284 258.046,442.58 262.112,442.58L450.879,442.58C454.946,442.58 458.241,439.284 458.241,435.218L458.241,93.818C458.241,89.754 454.946,86.456 450.879,86.456L262.112,86.456C258.046,86.456 254.75,89.754 254.75,93.818L254.75,435.218Z" style="fill:rgb(201,202,202);fill-rule:nonzero;"/>
    <path d="M396.063,391.316C396.063,395.5 392.767,398.895 388.697,398.895L261.35,442.531C257.284,442.531 254.75,440.601 254.75,436.418L254.75,94.503C254.75,90.311 258.046,86.926 262.112,86.926L388.696,38.29C392.766,38.29 396.062,41.68 396.062,45.869L396.062,391.316L396.063,391.316Z" style="fill:white;fill-rule:nonzero;"/>
    <path d="M254.75,435.218C254.75,439.284 251.45,442.58 247.384,442.58L64.259,442.58C60.196,442.58 56.896,439.284 56.896,435.218L56.896,93.818C56.896,89.754 60.197,86.456 64.259,86.456L247.384,86.456C251.45,86.456 254.75,89.754 254.75,93.818L254.75,435.218Z" style="fill:white;fill-rule:nonzero;"/>
    <g transform="matrix(1,0,0,1,-21.4592,58.2802)">
        <text x="116.215px" y="169.612px" style="font-family:'STLibianSC-Regular', 'Libian SC';font-size:136px;fill:rgb(31,29,40);">知</text>
        <text x="116.215px" y="305.612px" style="font-family:'STLibianSC-Regular', 'Libian SC';font-size:136px;fill:rgb(31,29,40);">书</text>
    </g>
    <path d="M226.483,80.803L257.566,80.803L257.566,159.943L244.746,150.757L242.025,151.109L226.483,159.942L226.483,80.803Z" style="fill:rgb(217,79,75);fill-rule:nonzero;"/>
    <g>
        <path d="M379.908,109.539L325.408,130.463L325.408,113.505L379.908,92.581L379.908,109.539Z" style="fill:rgb(220,221,221);fill-rule:nonzero;"/>
        <path d="M379.908,177.372L270.892,219.222L270.892,202.264L379.908,160.414L379.908,177.372Z" style="fill:rgb(220,221,221);fill-rule:nonzero;"/>
        <path d="M379.908,211.289L270.892,253.139L270.892,236.18L379.908,194.334L379.908,211.289Z" style="fill:rgb(220,221,221);fill-rule:nonzero;"/>
        <path d="M379.908,245.206L270.892,287.055L270.892,270.097L379.908,228.247L379.908,245.206Z" style="fill:rgb(220,221,221);fill-rule:nonzero;"/>
        <path d="M379.908,273.474L270.892,315.32L270.892,298.362L379.908,256.512L379.908,273.474Z" style="fill:rgb(220,221,221);fill-rule:nonzero;"/>
        <path d="M379.908,307.391L270.892,349.235L270.892,332.276L379.908,290.432L379.908,307.391Z" style="fill:rgb(220,221,221);fill-rule:nonzero;"/>
        <path d="M327.771,361.322L270.892,383.151L270.892,366.193L327.771,344.364L327.771,361.322Z" style="fill:rgb(220,221,221);fill-rule:nonzero;"/>
        <path d="M379.908,143.456L270.892,185.305L270.892,168.347L379.908,126.509L379.908,143.456Z" style="fill:rgb(220,221,221);fill-rule:nonzero;"/>
    </g>
</svg>
